<svg xmlns="http://www.w3.org/2000/svg" viewBox="0 0 583.46 129.72"><defs><style>.cls-1{fill:#1d1d1b;}.cls-2{fill:#fff;}.cls-3{fill:#1d1d1d;}</style></defs><title>isologotype-regular-dark</title><g id="Capa_2" data-name="Capa 2"><g id="regular-dark-white"><g id="isologotype-regular-dark"><path class="cls-1" d="M116.31,39.83V89.89a14.76,14.76,0,0,1-7.4,12.81l-1.8,1c-.29.17-.56.32-.83.49l-.17.1-13,7.53-2.63,1.52L65.56,127.73a14.72,14.72,0,0,1-14.8,0L7.4,102.7A14.8,14.8,0,0,1,0,89.89V39.83A14.82,14.82,0,0,1,7.4,27L50.76,2a14.82,14.82,0,0,1,14.8,0l43.35,25A14.77,14.77,0,0,1,116.31,39.83Z"/><path class="cls-2" d="M44.77,36.67,20.47,61a5.5,5.5,0,0,0,0,7.78l7.39,7.39L56,48Z"/><path class="cls-2" d="M86,44.06l-7.39-7.39L56,59.22,67.32,70.5,86,51.84A5.5,5.5,0,0,0,86,44.06Z"/><path class="cls-2" d="M50.4,64.86,33.49,81.77l24.3,24.3a5.5,5.5,0,0,0,7.78,0l9.13-9.13a5.5,5.5,0,0,0,0-7.78Z"/><path class="cls-2" d="M73,31l-7.38-7.39a5.5,5.5,0,0,0-7.78,0L50.4,31,61.68,42.31Z"/><path class="cls-3" d="M92.1,118.85v-1.23h6.47v1.23H96.06v6.87H94.6v-6.87Z"/><path class="cls-3" d="M99.81,117.62h1.8l2.4,5.87h.1l2.4-5.87h1.8v8.1H106.9v-5.57h-.07l-2.24,5.55h-1.06l-2.24-5.56h-.07v5.58H99.81Z"/><path class="cls-1" d="M175.3,33.25q-5.2-2.88-13.12-2.89H138V98.23h10.24V74.37h13.92q7.88,0,13.1-2.9a18.91,18.91,0,0,0,7.82-7.88,23.92,23.92,0,0,0,2.6-11.25,24,24,0,0,0-2.58-11.22A18.7,18.7,0,0,0,175.3,33.25Zm-1.39,26A10.74,10.74,0,0,1,169.34,64a16.6,16.6,0,0,1-8.12,1.74h-13V39.15h12.85a17.29,17.29,0,0,1,8.24,1.69,10.41,10.41,0,0,1,4.59,4.67,15.38,15.38,0,0,1,1.46,6.83A15.6,15.6,0,0,1,173.91,59.2Z"/><rect class="cls-1" x="196.84" y="30.36" width="9.91" height="67.87"/><path class="cls-1" d="M253.16,50a19.43,19.43,0,0,0-6.43-2.6,32.32,32.32,0,0,0-6.48-.71A29.25,29.25,0,0,0,231.47,48a19.74,19.74,0,0,0-7.37,4.17,18,18,0,0,0-4.86,7.51l9.31,2.12a12,12,0,0,1,4-4.89c1.91-1.47,4.54-2.2,7.87-2.2s5.62.79,7.24,2.38a9,9,0,0,1,2.44,6.73V64a2.81,2.81,0,0,1-1.29,2.59,10.76,10.76,0,0,1-4.14,1.14c-1.91.23-4.38.53-7.43.88a63.66,63.66,0,0,0-7.09,1.26,23.42,23.42,0,0,0-6.3,2.45,12.27,12.27,0,0,0-4.47,4.41,13.73,13.73,0,0,0-1.66,7.09A15.05,15.05,0,0,0,220,92.3a14.54,14.54,0,0,0,6.18,5.25,20.57,20.57,0,0,0,8.75,1.81,19.12,19.12,0,0,0,7.23-1.23A15.09,15.09,0,0,0,247,95.05a14,14,0,0,0,2.89-3.78h.4v7H260V64.43a18.74,18.74,0,0,0-1.92-9.06A14.39,14.39,0,0,0,253.16,50Zm-3.07,29.89a11,11,0,0,1-1.54,5.65,11.42,11.42,0,0,1-4.47,4.26,14.36,14.36,0,0,1-7,1.63,11.93,11.93,0,0,1-6.93-1.88,7.07,7.07,0,0,1-1.31-9.81,9,9,0,0,1,3.78-2.46A23.77,23.77,0,0,1,237.83,76l3-.41c1.22-.17,2.46-.36,3.75-.57a28.08,28.08,0,0,0,3.43-.76,4.93,4.93,0,0,0,2-1Z"/><polygon class="cls-1" points="285.55 89.15 312.06 54.56 312.06 47.33 273.02 47.33 273.02 55.95 299.7 55.95 299.7 56.41 272.13 91.44 272.13 98.23 312.99 98.23 312.99 89.62 285.55 89.62 285.55 89.15"/><path class="cls-1" d="M378.14,46.67a17.82,17.82,0,0,0-9.48,2.43,14.49,14.49,0,0,0-5.8,6.52h-.53a14,14,0,0,0-5.12-6.56,14.66,14.66,0,0,0-8.56-2.39A15.39,15.39,0,0,0,340,49a13.23,13.23,0,0,0-5.21,6.58h-.63V47.33h-9.51v50.9h9.91V66.85A12.34,12.34,0,0,1,336,60.79a10.93,10.93,0,0,1,3.81-4.1A9.66,9.66,0,0,1,345,55.22a9.25,9.25,0,0,1,6.73,2.52,8.89,8.89,0,0,1,2.58,6.66V98.23h9.88V65.79a10.92,10.92,0,0,1,2.68-7.61,9.65,9.65,0,0,1,7.52-3,10.23,10.23,0,0,1,6.73,2.32q2.82,2.31,2.82,7.49v33.2h9.91V64.1q0-8.74-4.39-13.09A15.43,15.43,0,0,0,378.14,46.67Z"/><path class="cls-1" d="M444,52.57a20.22,20.22,0,0,0-7.26-4.48,24.92,24.92,0,0,0-8.35-1.42,22,22,0,0,0-20.59,12.66,30.77,30.77,0,0,0-2.94,13.78,30.57,30.57,0,0,0,2.94,13.81A21.55,21.55,0,0,0,416.1,96,24.83,24.83,0,0,0,429,99.26,27,27,0,0,0,439,97.55a19.42,19.42,0,0,0,7.26-4.8,17,17,0,0,0,4-7.24l-9.38-1.69a10.55,10.55,0,0,1-6.6,6.44,15.42,15.42,0,0,1-5.13.81,14.88,14.88,0,0,1-7.59-1.87,12.66,12.66,0,0,1-5.05-5.45,18.68,18.68,0,0,1-1.78-8h36.16V72.25A33,33,0,0,0,449,60.47,21,21,0,0,0,444,52.57ZM414.74,68.34a15.3,15.3,0,0,1,1.62-6.15,13.84,13.84,0,0,1,4.78-5.3,12.91,12.91,0,0,1,7.27-2,12.6,12.6,0,0,1,6.71,1.76,12.11,12.11,0,0,1,4.46,4.79,14.7,14.7,0,0,1,1.59,6.94Z"/><path class="cls-1" d="M496.28,55.58h-.6a33.12,33.12,0,0,0-2.5-3.68,14.06,14.06,0,0,0-4.51-3.66A16,16,0,0,0,481,46.67a19.88,19.88,0,0,0-11,3.11,21,21,0,0,0-7.6,9,32.8,32.8,0,0,0-2.77,14.12A33.35,33.35,0,0,0,462.42,87a21.22,21.22,0,0,0,7.56,9,19.57,19.57,0,0,0,11,3.17,16,16,0,0,0,7.55-1.56A14.36,14.36,0,0,0,493.11,94a26.88,26.88,0,0,0,2.57-3.71h.83v7.92h9.67V30.36h-9.9ZM494.9,82.19a14,14,0,0,1-4.51,6.32,12.71,12.71,0,0,1-14.64-.1A14.47,14.47,0,0,1,471.22,82a26.22,26.22,0,0,1-1.52-9.18,25.49,25.49,0,0,1,1.51-9.05,14,14,0,0,1,4.49-6.32,13.1,13.1,0,0,1,14.74-.1,13.62,13.62,0,0,1,4.48,6.19,26,26,0,0,1,1.52,9.28A26.26,26.26,0,0,1,494.9,82.19Z"/><rect class="cls-1" x="520.3" y="47.33" width="9.91" height="50.9"/><path class="cls-1" d="M581.54,55.37A14.39,14.39,0,0,0,576.62,50a19.43,19.43,0,0,0-6.43-2.6,32.32,32.32,0,0,0-6.48-.71A29.25,29.25,0,0,0,554.93,48a19.74,19.74,0,0,0-7.37,4.17,18,18,0,0,0-4.86,7.51L552,61.78a12,12,0,0,1,4-4.89c1.91-1.47,4.54-2.2,7.87-2.2s5.62.79,7.24,2.38a9,9,0,0,1,2.44,6.73V64a2.81,2.81,0,0,1-1.29,2.59,10.7,10.7,0,0,1-4.14,1.14c-1.9.23-4.38.53-7.43.88a63.66,63.66,0,0,0-7.09,1.26,23.42,23.42,0,0,0-6.3,2.45,12.27,12.27,0,0,0-4.47,4.41,13.73,13.73,0,0,0-1.66,7.09,15.05,15.05,0,0,0,2.27,8.45,14.51,14.51,0,0,0,6.19,5.25,20.49,20.49,0,0,0,8.74,1.81,19.12,19.12,0,0,0,7.23-1.23,15.25,15.25,0,0,0,4.94-3.08,14.17,14.17,0,0,0,2.88-3.78h.4v7h9.67V64.43A18.74,18.74,0,0,0,581.54,55.37Zm-8,24.5A11,11,0,0,1,572,85.52a11.42,11.42,0,0,1-4.47,4.26,14.36,14.36,0,0,1-7,1.63,11.93,11.93,0,0,1-6.93-1.88,7.07,7.07,0,0,1-1.31-9.81A9,9,0,0,1,556,77.26,23.77,23.77,0,0,1,561.29,76l3.05-.41c1.22-.17,2.46-.36,3.75-.57a28.08,28.08,0,0,0,3.43-.76,4.93,4.93,0,0,0,2-1Z"/></g></g></g></svg>