<svg xmlns="http://www.w3.org/2000/svg" viewBox="0 0 367.62 410"><defs><style>.cls-1{fill:#1d1d1b;}.cls-2{fill:#fff;}</style></defs><title>isotype-dark-fill</title><g id="Capa_2" data-name="Capa 2"><g id="isotypes"><g id="isotype-dark-fill"><path class="cls-1" d="M367.62,125.9V284.11a46.75,46.75,0,0,1-23.39,40.5l-5.68,3.28c-.92.52-1.78,1-2.65,1.53l-.51.31-41.27,23.83-8.31,4.78-78.59,45.37a46.64,46.64,0,0,1-46.79,0l-137-79.1A46.81,46.81,0,0,1,0,284.11V125.9A46.81,46.81,0,0,1,23.39,85.37l137-79.11a46.83,46.83,0,0,1,46.79,0l137,79.11A46.75,46.75,0,0,1,367.62,125.9Z"/><path class="cls-2" d="M177.13,151.54,88,240.64,64.7,217.29a17.38,17.38,0,0,1,0-24.58l76.79-76.8Z"/><path class="cls-2" d="M230.58,98.09,195,133.72,159.31,98.09l23.34-23.34a17.39,17.39,0,0,1,24.59,0Z"/><path class="cls-2" d="M271.74,163.83l-59,59-35.63-35.64,71.28-71.27,23.33,23.34A17.38,17.38,0,0,1,271.74,163.83Z"/><path class="cls-2" d="M236.11,306.38l-28.87,28.87a17.38,17.38,0,0,1-24.58,0l-76.8-76.8L159.31,205l76.8,76.8A17.38,17.38,0,0,1,236.11,306.38Z"/><path class="cls-1" d="M291.08,375.63v-3.9h20.45v3.9h-7.92v21.73H299V375.63Z"/><path class="cls-1" d="M315.45,371.73h5.69l7.6,18.57h.3l7.61-18.57h5.68v25.63h-4.45V379.75h-.24l-7.08,17.54h-3.33l-7.08-17.57h-.24v17.64h-4.46Z"/></g></g></g></svg>